**********************
PowerShell transcript start
Start time: 20230516173719
**********************
Transcript started, output file is ./logs/hevcnvenc_qpoffset_2_200808.avi.log
DEBUG Invoke-Process
File: ffmpeg
Arg: -y -nostats -hwaccel nvdec -i 200808.avi -an -c:v hevc_nvenc -preset:v p7 -profile:v main10 -rc:v constqp -rc-lookahead 1 -spatial-aq 0 -temporal-aq 1 -weighted_pred 0 -init_qpI 21 -init_qpP 21 -init_qpB 24 -qp_cb_offset 0 -qp_cr_offset 0 -b_ref_mode 1 -dpb_size 4 -multipass 1 -g 60 -bf 3 -pix_fmt yuv420p10le -color_range tv -color_primaries bt709 -color_trc bt709 -colorspace bt709 -movflags +faststart 200808.avi.mp4
ArgList:

libavutil      58.  3.100 / 58.  3.100
ffmpeg version N-109952-g52a0852ae6-20230302 Copyright (c) 2000-2023 the FFmpeg developers
  configuration: --prefix=/ffbuild/prefix --pkg-config-flags=--static --pkg-config=pkg-config --cross-prefix=x86_64-w64-mingw32- --arch=x86_64 --target-os=mingw32 --enable-nonfree --enable-gpl --enable-version3 --disable-debug --disable-w32threads --enable-pthreads --enable-iconv --enable-libxml2 --enable-zlib --enable-libfreetype --enable-libfribidi --enable-gmp --enable-lzma --enable-fontconfig --enable-libvorbis --enable-opencl --disable-libpulse --enable-libvmaf --disable-libxcb --disable-xlib --enable-amf --enable-libaom --enable-libaribb24 --enable-avisynth --enable-chromaprint --enable-libdav1d --enable-libdavs2 --enable-libfdk-aac --enable-ffnvcodec --enable-cuda-llvm --enable-frei0r --enable-libgme --enable-libkvazaar --enable-libass --enable-libbluray --enable-libjxl --enable-libmp3lame --enable-libopus --enable-librist --enable-libssh --enable-libtheora --enable-libvpx --enable-libwebp --enable-lv2 --disable-libmfx --enable-libvpl --enable-openal --enable-libopencore-amrnb --enable-libopencore-amrwb --enable-libopenh264 --enable-libopenjpeg --enable-libopenmpt --enable-librav1e --enable-librubberband --enable-schannel --enable-sdl2 --enable-libsoxr --enable-libsrt --enable-libsvtav1 --enable-libtwolame --enable-libuavs3d --disable-libdrm --disable-vaapi --enable-libvidstab --enable-vulkan --enable-libshaderc --enable-libplacebo --enable-libx264 --enable-libx265 --enable-libxavs2 --enable-libxvid --enable-libzimg --enable-libzvbi --extra-cflags=-DLIBTWOLAME_STATIC --extra-cxxflags= --extra-ldflags=-pthread --extra-ldexeflags= --extra-libs=-lgomp --extra-version=20230302
  libavformat    60.  4.100 / 60.  4.100
  libavcodec     60.  5.100 / 60.  5.100
  built with gcc 12.2.0 (crosstool-NG 1.25.0.90_cf9beb1)
  libswscale      7.  2.100 /  7.  2.100
  libswresample   4. 11.100 /  4. 11.100
  libavdevice    60.  2.100 / 60.  2.100
  libavfilter     9.  4.100 /  9.  4.100
  libpostproc    57.  2.100 / 57.  2.100
Input #0, avi, from '200808.avi':
    software        : Lavf58.49.100
  Metadata:
  Duration: 00:02:01.05, start: 0.000000, bitrate: 745549 kb/s
  Stream #0:0: Video: rawvideo (I420 / 0x30323449), yuv420p, 1920x1080, 745750 kb/s, SAR 1:1 DAR 16:9, 29.97 fps, 29.97 tbr, 29.97 tbn
Stream mapping:
  Stream #0:0 -> #0:0 (rawvideo (native) -> hevc (hevc_nvenc))
Press [q] to stop, [?] for help
Incompatible pixel format 'yuv420p10le' for codec 'hevc_nvenc', auto-selecting format 'p010le'
Output #0, mp4, to '200808.avi.mp4':
  Metadata:
    software        : Lavf58.49.100
  Stream #0:0: Video: hevc (Main 10) (hev1 / 0x31766568), p010le(tv, bt709, progressive), 1920x1080 [SAR 1:1 DAR 16:9], q=2-31, 2000 kb/s, 29.97 fps, 30k tbn
    Metadata:
      encoder         : Lavc60.5.100 hevc_nvenc
    Side data:
    encoder         : Lavf60.4.100
      cpb: bitrate max/min/avg: 0/0/2000000 buffer size: 4000000 vbv_delay: N/A
[mp4 @ 000001d987d64740] Starting second pass: moving the moov atom to the beginning of the file
frame= 3628 fps=131 q=23.0 Lsize=  139832kB time=00:02:00.92 bitrate=9473.2kbits/s dup=1 drop=0 speed=4.37x    
video:139799kB audio:0kB subtitle:0kB other streams:0kB global headers:0kB muxing overhead: 0.023017%
DEBUG ExitCode: 0
DEBUG Invoke-Process
File: ffmpeg
Arg: -y -nostats -i 200808.avi.mp4 -i 200808.avi -filter_complex libvmaf=model=version=vmaf_v0.6.1neg\\:name=vmaf_neg -an -f null -
ArgList:

ffmpeg version N-109952-g52a0852ae6-20230302 Copyright (c) 2000-2023 the FFmpeg developers
  configuration: --prefix=/ffbuild/prefix --pkg-config-flags=--static --pkg-config=pkg-config --cross-prefix=x86_64-w64-mingw32- --arch=x86_64 --target-os=mingw32 --enable-nonfree --enable-gpl --enable-version3 --disable-debug --disable-w32threads --enable-pthreads --enable-iconv --enable-libxml2 --enable-zlib --enable-libfreetype --enable-libfribidi --enable-gmp --enable-lzma --enable-fontconfig --enable-libvorbis --enable-opencl --disable-libpulse --enable-libvmaf --disable-libxcb --disable-xlib --enable-amf --enable-libaom --enable-libaribb24 --enable-avisynth --enable-chromaprint --enable-libdav1d --enable-libdavs2 --enable-libfdk-aac --enable-ffnvcodec --enable-cuda-llvm --enable-frei0r --enable-libgme --enable-libkvazaar --enable-libass --enable-libbluray --enable-libjxl --enable-libmp3lame --enable-libopus --enable-librist --enable-libssh --enable-libtheora --enable-libvpx --enable-libwebp --enable-lv2 --disable-libmfx --enable-libvpl --enable-openal --enable-libopencore-amrnb --enable-libopencore-amrwb --enable-libopenh264 --enable-libopenjpeg --enable-libopenmpt --enable-librav1e --enable-librubberband --enable-schannel --enable-sdl2 --enable-libsoxr --enable-libsrt --enable-libsvtav1 --enable-libtwolame --enable-libuavs3d --disable-libdrm --disable-vaapi --enable-libvidstab --enable-vulkan --enable-libshaderc --enable-libplacebo --enable-libx264 --enable-libx265 --enable-libxavs2 --enable-libxvid --enable-libzimg --enable-libzvbi --extra-cflags=-DLIBTWOLAME_STATIC --extra-cxxflags= --extra-ldflags=-pthread --extra-ldexeflags= --extra-libs=-lgomp --extra-version=20230302
  libavutil      58.  3.100 / 58.  3.100
  libavcodec     60.  5.100 / 60.  5.100
  libavformat    60.  4.100 / 60.  4.100
  libavdevice    60.  2.100 / 60.  2.100
  libavfilter     9.  4.100 /  9.  4.100
  libswscale      7.  2.100 /  7.  2.100
  libswresample   4. 11.100 /  4. 11.100
  libpostproc    57.  2.100 / 57.  2.100
  built with gcc 12.2.0 (crosstool-NG 1.25.0.90_cf9beb1)
Input #0, mov,mp4,m4a,3gp,3g2,mj2, from '200808.avi.mp4':
    major_brand     : isom
    minor_version   : 512
  Metadata:
    compatible_brands: isomiso2mp41
  Duration: 00:02:01.05, start: 0.000000, bitrate: 9462 kb/s
  Stream #0:0[0x1](und): Video: hevc (Main 10) (hev1 / 0x31766568), yuv420p10le(tv, bt709, progressive), 1920x1080 [SAR 1:1 DAR 16:9], 9460 kb/s, 29.97 fps, 29.97 tbr, 30k tbn (default)
    Metadata:
      vendor_id       : [0][0][0][0]
      encoder         : Lavc60.5.100 hevc_nvenc
    encoder         : Lavf60.4.100
      handler_name    : VideoHandler
Input #1, avi, from '200808.avi':
  Metadata:
    software        : Lavf58.49.100
  Duration: 00:02:01.05, start: 0.000000, bitrate: 745549 kb/s
  Stream #1:0: Video: rawvideo (I420 / 0x30323449), yuv420p, 1920x1080, 745750 kb/s, SAR 1:1 DAR 16:9, 29.97 fps, 29.97 tbr, 29.97 tbn
Stream mapping:
  Stream #0:0 (hevc) -> libvmaf
  Stream #1:0 (rawvideo) -> libvmaf
  libvmaf:default -> Stream #0:0 (wrapped_avframe)
Press [q] to stop, [?] for help
Output #0, null, to 'pipe:':
    major_brand     : isom
    minor_version   : 512
  Metadata:
    compatible_brands: isomiso2mp41
    encoder         : Lavf60.4.100
  Stream #0:0: Video: wrapped_avframe, yuv420p10le(tv, bt709, progressive), 1920x1080 [SAR 1:1 DAR 16:9], q=2-31, 200 kb/s, 29.97 fps, 29.97 tbn
    Metadata:
      encoder         : Lavc60.5.100 wrapped_avframe
frame= 3628 fps=6.8 q=-0.0 Lsize=N/A time=00:02:01.02 bitrate=N/A speed=0.226x    
video:1701kB audio:0kB subtitle:0kB other streams:0kB global headers:0kB muxing overhead: unknown
[Parsed_libvmaf_0 @ 0000020a1ac61300] VMAF score: 94.976103
DEBUG ExitCode: 0
DEBUG Invoke-Process
File: ffmpeg
Arg: -y -nostats -hwaccel nvdec -i 200808.avi -an -c:v hevc_nvenc -preset:v p7 -profile:v main10 -rc:v constqp -rc-lookahead 1 -spatial-aq 0 -temporal-aq 1 -weighted_pred 0 -init_qpI 21 -init_qpP 21 -init_qpB 24 -qp_cb_offset -12 -qp_cr_offset -12 -b_ref_mode 1 -dpb_size 4 -multipass 1 -g 60 -bf 3 -pix_fmt yuv420p10le -color_range tv -color_primaries bt709 -color_trc bt709 -colorspace bt709 -movflags +faststart 200808.avi.mp4
ArgList:

ffmpeg version N-109952-g52a0852ae6-20230302 Copyright (c) 2000-2023 the FFmpeg developers
  built with gcc 12.2.0 (crosstool-NG 1.25.0.90_cf9beb1)
  configuration: --prefix=/ffbuild/prefix --pkg-config-flags=--static --pkg-config=pkg-config --cross-prefix=x86_64-w64-mingw32- --arch=x86_64 --target-os=mingw32 --enable-nonfree --enable-gpl --enable-version3 --disable-debug --disable-w32threads --enable-pthreads --enable-iconv --enable-libxml2 --enable-zlib --enable-libfreetype --enable-libfribidi --enable-gmp --enable-lzma --enable-fontconfig --enable-libvorbis --enable-opencl --disable-libpulse --enable-libvmaf --disable-libxcb --disable-xlib --enable-amf --enable-libaom --enable-libaribb24 --enable-avisynth --enable-chromaprint --enable-libdav1d --enable-libdavs2 --enable-libfdk-aac --enable-ffnvcodec --enable-cuda-llvm --enable-frei0r --enable-libgme --enable-libkvazaar --enable-libass --enable-libbluray --enable-libjxl --enable-libmp3lame --enable-libopus --enable-librist --enable-libssh --enable-libtheora --enable-libvpx --enable-libwebp --enable-lv2 --disable-libmfx --enable-libvpl --enable-openal --enable-libopencore-amrnb --enable-libopencore-amrwb --enable-libopenh264 --enable-libopenjpeg --enable-libopenmpt --enable-librav1e --enable-librubberband --enable-schannel --enable-sdl2 --enable-libsoxr --enable-libsrt --enable-libsvtav1 --enable-libtwolame --enable-libuavs3d --disable-libdrm --disable-vaapi --enable-libvidstab --enable-vulkan --enable-libshaderc --enable-libplacebo --enable-libx264 --enable-libx265 --enable-libxavs2 --enable-libxvid --enable-libzimg --enable-libzvbi --extra-cflags=-DLIBTWOLAME_STATIC --extra-cxxflags= --extra-ldflags=-pthread --extra-ldexeflags= --extra-libs=-lgomp --extra-version=20230302
  libavutil      58.  3.100 / 58.  3.100
  libavcodec     60.  5.100 / 60.  5.100
  libavformat    60.  4.100 / 60.  4.100
  libavdevice    60.  2.100 / 60.  2.100
  libavfilter     9.  4.100 /  9.  4.100
  libswscale      7.  2.100 /  7.  2.100
  libswresample   4. 11.100 /  4. 11.100
  libpostproc    57.  2.100 / 57.  2.100
Input #0, avi, from '200808.avi':
  Metadata:
  Duration: 00:02:01.05, start: 0.000000, bitrate: 745549 kb/s
  Stream #0:0: Video: rawvideo (I420 / 0x30323449), yuv420p, 1920x1080, 745750 kb/s, SAR 1:1 DAR 16:9, 29.97 fps, 29.97 tbr, 29.97 tbn
    software        : Lavf58.49.100
Stream mapping:
  Stream #0:0 -> #0:0 (rawvideo (native) -> hevc (hevc_nvenc))
Press [q] to stop, [?] for help
Incompatible pixel format 'yuv420p10le' for codec 'hevc_nvenc', auto-selecting format 'p010le'
Output #0, mp4, to '200808.avi.mp4':
  Metadata:
    software        : Lavf58.49.100
    encoder         : Lavf60.4.100
  Stream #0:0: Video: hevc (Main 10) (hev1 / 0x31766568), p010le(tv, bt709, progressive), 1920x1080 [SAR 1:1 DAR 16:9], q=2-31, 2000 kb/s, 29.97 fps, 30k tbn
    Metadata:
      encoder         : Lavc60.5.100 hevc_nvenc
    Side data:
      cpb: bitrate max/min/avg: 0/0/2000000 buffer size: 4000000 vbv_delay: N/A
[mp4 @ 000002a4bca54740] Starting second pass: moving the moov atom to the beginning of the file
frame= 3628 fps=123 q=23.0 Lsize=  297988kB time=00:02:00.92 bitrate=20187.7kbits/s dup=1 drop=0 speed= 4.1x    
video:297953kB audio:0kB subtitle:0kB other streams:0kB global headers:0kB muxing overhead: 0.011468%
DEBUG ExitCode: 0
DEBUG Invoke-Process
File: ffmpeg
Arg: -y -nostats -i 200808.avi.mp4 -i 200808.avi -filter_complex libvmaf=model=version=vmaf_v0.6.1neg\\:name=vmaf_neg -an -f null -
ArgList:

ffmpeg version N-109952-g52a0852ae6-20230302 Copyright (c) 2000-2023 the FFmpeg developers
  built with gcc 12.2.0 (crosstool-NG 1.25.0.90_cf9beb1)
  configuration: --prefix=/ffbuild/prefix --pkg-config-flags=--static --pkg-config=pkg-config --cross-prefix=x86_64-w64-mingw32- --arch=x86_64 --target-os=mingw32 --enable-nonfree --enable-gpl --enable-version3 --disable-debug --disable-w32threads --enable-pthreads --enable-iconv --enable-libxml2 --enable-zlib --enable-libfreetype --enable-libfribidi --enable-gmp --enable-lzma --enable-fontconfig --enable-libvorbis --enable-opencl --disable-libpulse --enable-libvmaf --disable-libxcb --disable-xlib --enable-amf --enable-libaom --enable-libaribb24 --enable-avisynth --enable-chromaprint --enable-libdav1d --enable-libdavs2 --enable-libfdk-aac --enable-ffnvcodec --enable-cuda-llvm --enable-frei0r --enable-libgme --enable-libkvazaar --enable-libass --enable-libbluray --enable-libjxl --enable-libmp3lame --enable-libopus --enable-librist --enable-libssh --enable-libtheora --enable-libvpx --enable-libwebp --enable-lv2 --disable-libmfx --enable-libvpl --enable-openal --enable-libopencore-amrnb --enable-libopencore-amrwb --enable-libopenh264 --enable-libopenjpeg --enable-libopenmpt --enable-librav1e --enable-librubberband --enable-schannel --enable-sdl2 --enable-libsoxr --enable-libsrt --enable-libsvtav1 --enable-libtwolame --enable-libuavs3d --disable-libdrm --disable-vaapi --enable-libvidstab --enable-vulkan --enable-libshaderc --enable-libplacebo --enable-libx264 --enable-libx265 --enable-libxavs2 --enable-libxvid --enable-libzimg --enable-libzvbi --extra-cflags=-DLIBTWOLAME_STATIC --extra-cxxflags= --extra-ldflags=-pthread --extra-ldexeflags= --extra-libs=-lgomp --extra-version=20230302
  libavutil      58.  3.100 / 58.  3.100
  libavcodec     60.  5.100 / 60.  5.100
  libavformat    60.  4.100 / 60.  4.100
  libavdevice    60.  2.100 / 60.  2.100
  libavfilter     9.  4.100 /  9.  4.100
  libswscale      7.  2.100 /  7.  2.100
  libswresample   4. 11.100 /  4. 11.100
  libpostproc    57.  2.100 / 57.  2.100
Input #0, mov,mp4,m4a,3gp,3g2,mj2, from '200808.avi.mp4':
  Metadata:
    major_brand     : isom
    compatible_brands: isomiso2mp41
    encoder         : Lavf60.4.100
  Duration: 00:02:01.05, start: 0.000000, bitrate: 20165 kb/s
  Stream #0:0[0x1](und): Video: hevc (Main 10) (hev1 / 0x31766568), yuv420p10le(tv, bt709, progressive), 1920x1080 [SAR 1:1 DAR 16:9], 20163 kb/s, 29.97 fps, 29.97 tbr, 30k tbn (default)
    Metadata:
    minor_version   : 512
      handler_name    : VideoHandler
      vendor_id       : [0][0][0][0]
      encoder         : Lavc60.5.100 hevc_nvenc
Input #1, avi, from '200808.avi':
  Metadata:
    software        : Lavf58.49.100
  Duration: 00:02:01.05, start: 0.000000, bitrate: 745549 kb/s
  Stream #1:0: Video: rawvideo (I420 / 0x30323449), yuv420p, 1920x1080, 745750 kb/s, SAR 1:1 DAR 16:9, 29.97 fps, 29.97 tbr, 29.97 tbn
Stream mapping:
  Stream #0:0 (hevc) -> libvmaf
  Stream #1:0 (rawvideo) -> libvmaf
  libvmaf:default -> Stream #0:0 (wrapped_avframe)
Press [q] to stop, [?] for help
Output #0, null, to 'pipe:':
  Metadata:
    major_brand     : isom
    compatible_brands: isomiso2mp41
    encoder         : Lavf60.4.100
    minor_version   : 512
    Metadata:
  Stream #0:0: Video: wrapped_avframe, yuv420p10le(tv, bt709, progressive), 1920x1080 [SAR 1:1 DAR 16:9], q=2-31, 200 kb/s, 29.97 fps, 29.97 tbn
      encoder         : Lavc60.5.100 wrapped_avframe
frame= 3628 fps=6.3 q=-0.0 Lsize=N/A time=00:02:01.02 bitrate=N/A speed=0.21x    
video:1701kB audio:0kB subtitle:0kB other streams:0kB global headers:0kB muxing overhead: unknown
[Parsed_libvmaf_0 @ 000001e9b6817a00] VMAF score: 94.974868
DEBUG ExitCode: 0
DEBUG Invoke-Process
File: ffmpeg
Arg: -y -nostats -hwaccel nvdec -i 200808.avi -an -c:v hevc_nvenc -preset:v p7 -profile:v main10 -rc:v constqp -rc-lookahead 1 -spatial-aq 0 -temporal-aq 1 -weighted_pred 0 -init_qpI 21 -init_qpP 21 -init_qpB 24 -qp_cb_offset -12 -qp_cr_offset 0 -b_ref_mode 1 -dpb_size 4 -multipass 1 -g 60 -bf 3 -pix_fmt yuv420p10le -color_range tv -color_primaries bt709 -color_trc bt709 -colorspace bt709 -movflags +faststart 200808.avi.mp4
ArgList:

ffmpeg version N-109952-g52a0852ae6-20230302 Copyright (c) 2000-2023 the FFmpeg developers
  built with gcc 12.2.0 (crosstool-NG 1.25.0.90_cf9beb1)
  configuration: --prefix=/ffbuild/prefix --pkg-config-flags=--static --pkg-config=pkg-config --cross-prefix=x86_64-w64-mingw32- --arch=x86_64 --target-os=mingw32 --enable-nonfree --enable-gpl --enable-version3 --disable-debug --disable-w32threads --enable-pthreads --enable-iconv --enable-libxml2 --enable-zlib --enable-libfreetype --enable-libfribidi --enable-gmp --enable-lzma --enable-fontconfig --enable-libvorbis --enable-opencl --disable-libpulse --enable-libvmaf --disable-libxcb --disable-xlib --enable-amf --enable-libaom --enable-libaribb24 --enable-avisynth --enable-chromaprint --enable-libdav1d --enable-libdavs2 --enable-libfdk-aac --enable-ffnvcodec --enable-cuda-llvm --enable-frei0r --enable-libgme --enable-libkvazaar --enable-libass --enable-libbluray --enable-libjxl --enable-libmp3lame --enable-libopus --enable-librist --enable-libssh --enable-libtheora --enable-libvpx --enable-libwebp --enable-lv2 --disable-libmfx --enable-libvpl --enable-openal --enable-libopencore-amrnb --enable-libopencore-amrwb --enable-libopenh264 --enable-libopenjpeg --enable-libopenmpt --enable-librav1e --enable-librubberband --enable-schannel --enable-sdl2 --enable-libsoxr --enable-libsrt --enable-libsvtav1 --enable-libtwolame --enable-libuavs3d --disable-libdrm --disable-vaapi --enable-libvidstab --enable-vulkan --enable-libshaderc --enable-libplacebo --enable-libx264 --enable-libx265 --enable-libxavs2 --enable-libxvid --enable-libzimg --enable-libzvbi --extra-cflags=-DLIBTWOLAME_STATIC --extra-cxxflags= --extra-ldflags=-pthread --extra-ldexeflags= --extra-libs=-lgomp --extra-version=20230302
  libavutil      58.  3.100 / 58.  3.100
  libavcodec     60.  5.100 / 60.  5.100
  libavformat    60.  4.100 / 60.  4.100
  libavdevice    60.  2.100 / 60.  2.100
  libavfilter     9.  4.100 /  9.  4.100
  libswscale      7.  2.100 /  7.  2.100
  libswresample   4. 11.100 /  4. 11.100
  libpostproc    57.  2.100 / 57.  2.100
Input #0, avi, from '200808.avi':
  Metadata:
  Duration: 00:02:01.05, start: 0.000000, bitrate: 745549 kb/s
  Stream #0:0: Video: rawvideo (I420 / 0x30323449), yuv420p, 1920x1080, 745750 kb/s, SAR 1:1 DAR 16:9, 29.97 fps, 29.97 tbr, 29.97 tbn
    software        : Lavf58.49.100
Stream mapping:
  Stream #0:0 -> #0:0 (rawvideo (native) -> hevc (hevc_nvenc))
Press [q] to stop, [?] for help
Incompatible pixel format 'yuv420p10le' for codec 'hevc_nvenc', auto-selecting format 'p010le'
Output #0, mp4, to '200808.avi.mp4':
    software        : Lavf58.49.100
    encoder         : Lavf60.4.100
  Stream #0:0: Video: hevc (Main 10) (hev1 / 0x31766568), p010le(tv, bt709, progressive), 1920x1080 [SAR 1:1 DAR 16:9], q=2-31, 2000 kb/s, 29.97 fps, 30k tbn
  Metadata:
    Metadata:
      encoder         : Lavc60.5.100 hevc_nvenc
    Side data:
      cpb: bitrate max/min/avg: 0/0/2000000 buffer size: 4000000 vbv_delay: N/A
[mp4 @ 000002368c9f4740] Starting second pass: moving the moov atom to the beginning of the file
frame= 3628 fps=124 q=23.0 Lsize=  230240kB time=00:02:00.92 bitrate=15598.0kbits/s dup=1 drop=0 speed=4.12x    
video:230206kB audio:0kB subtitle:0kB other streams:0kB global headers:0kB muxing overhead: 0.014428%
DEBUG ExitCode: 0
DEBUG Invoke-Process
File: ffmpeg
Arg: -y -nostats -i 200808.avi.mp4 -i 200808.avi -filter_complex libvmaf=model=version=vmaf_v0.6.1neg\\:name=vmaf_neg -an -f null -
ArgList:

ffmpeg version N-109952-g52a0852ae6-20230302 Copyright (c) 2000-2023 the FFmpeg developers
  built with gcc 12.2.0 (crosstool-NG 1.25.0.90_cf9beb1)
  configuration: --prefix=/ffbuild/prefix --pkg-config-flags=--static --pkg-config=pkg-config --cross-prefix=x86_64-w64-mingw32- --arch=x86_64 --target-os=mingw32 --enable-nonfree --enable-gpl --enable-version3 --disable-debug --disable-w32threads --enable-pthreads --enable-iconv --enable-libxml2 --enable-zlib --enable-libfreetype --enable-libfribidi --enable-gmp --enable-lzma --enable-fontconfig --enable-libvorbis --enable-opencl --disable-libpulse --enable-libvmaf --disable-libxcb --disable-xlib --enable-amf --enable-libaom --enable-libaribb24 --enable-avisynth --enable-chromaprint --enable-libdav1d --enable-libdavs2 --enable-libfdk-aac --enable-ffnvcodec --enable-cuda-llvm --enable-frei0r --enable-libgme --enable-libkvazaar --enable-libass --enable-libbluray --enable-libjxl --enable-libmp3lame --enable-libopus --enable-librist --enable-libssh --enable-libtheora --enable-libvpx --enable-libwebp --enable-lv2 --disable-libmfx --enable-libvpl --enable-openal --enable-libopencore-amrnb --enable-libopencore-amrwb --enable-libopenh264 --enable-libopenjpeg --enable-libopenmpt --enable-librav1e --enable-librubberband --enable-schannel --enable-sdl2 --enable-libsoxr --enable-libsrt --enable-libsvtav1 --enable-libtwolame --enable-libuavs3d --disable-libdrm --disable-vaapi --enable-libvidstab --enable-vulkan --enable-libshaderc --enable-libplacebo --enable-libx264 --enable-libx265 --enable-libxavs2 --enable-libxvid --enable-libzimg --enable-libzvbi --extra-cflags=-DLIBTWOLAME_STATIC --extra-cxxflags= --extra-ldflags=-pthread --extra-ldexeflags= --extra-libs=-lgomp --extra-version=20230302
  libavutil      58.  3.100 / 58.  3.100
  libavcodec     60.  5.100 / 60.  5.100
  libavformat    60.  4.100 / 60.  4.100
  libavdevice    60.  2.100 / 60.  2.100
  libavfilter     9.  4.100 /  9.  4.100
  libswscale      7.  2.100 /  7.  2.100
  libswresample   4. 11.100 /  4. 11.100
  libpostproc    57.  2.100 / 57.  2.100
Input #0, mov,mp4,m4a,3gp,3g2,mj2, from '200808.avi.mp4':
  Metadata:
    major_brand     : isom
    minor_version   : 512
    encoder         : Lavf60.4.100
  Duration: 00:02:01.05, start: 0.000000, bitrate: 15580 kb/s
  Stream #0:0[0x1](und): Video: hevc (Main 10) (hev1 / 0x31766568), yuv420p10le(tv, bt709, progressive), 1920x1080 [SAR 1:1 DAR 16:9], 15578 kb/s, 29.97 fps, 29.97 tbr, 30k tbn (default)
    Metadata:
      handler_name    : VideoHandler
      vendor_id       : [0][0][0][0]
      encoder         : Lavc60.5.100 hevc_nvenc
    compatible_brands: isomiso2mp41
Input #1, avi, from '200808.avi':
  Metadata:
    software        : Lavf58.49.100
  Duration: 00:02:01.05, start: 0.000000, bitrate: 745549 kb/s
  Stream #1:0: Video: rawvideo (I420 / 0x30323449), yuv420p, 1920x1080, 745750 kb/s, SAR 1:1 DAR 16:9, 29.97 fps, 29.97 tbr, 29.97 tbn
Stream mapping:
  Stream #0:0 (hevc) -> libvmaf
  Stream #1:0 (rawvideo) -> libvmaf
Press [q] to stop, [?] for help
  libvmaf:default -> Stream #0:0 (wrapped_avframe)
Output #0, null, to 'pipe:':
    major_brand     : isom
    minor_version   : 512
    compatible_brands: isomiso2mp41
    encoder         : Lavf60.4.100
  Stream #0:0: Video: wrapped_avframe, yuv420p10le(tv, bt709, progressive), 1920x1080 [SAR 1:1 DAR 16:9], q=2-31, 200 kb/s, 29.97 fps, 29.97 tbn
  Metadata:
    Metadata:
      encoder         : Lavc60.5.100 wrapped_avframe
frame= 3628 fps=6.6 q=-0.0 Lsize=N/A time=00:02:01.02 bitrate=N/A speed=0.219x    
video:1701kB audio:0kB subtitle:0kB other streams:0kB global headers:0kB muxing overhead: unknown
[Parsed_libvmaf_0 @ 000001d09fc07a00] VMAF score: 94.975122
DEBUG ExitCode: 0
DEBUG Invoke-Process
File: ffmpeg
Arg: -y -nostats -hwaccel nvdec -i 200808.avi -an -c:v hevc_nvenc -preset:v p7 -profile:v main10 -rc:v constqp -rc-lookahead 1 -spatial-aq 0 -temporal-aq 1 -weighted_pred 0 -init_qpI 21 -init_qpP 21 -init_qpB 24 -qp_cb_offset 0 -qp_cr_offset -12 -b_ref_mode 1 -dpb_size 4 -multipass 1 -g 60 -bf 3 -pix_fmt yuv420p10le -color_range tv -color_primaries bt709 -color_trc bt709 -colorspace bt709 -movflags +faststart 200808.avi.mp4
ArgList:

ffmpeg version N-109952-g52a0852ae6-20230302 Copyright (c) 2000-2023 the FFmpeg developers
  built with gcc 12.2.0 (crosstool-NG 1.25.0.90_cf9beb1)
  configuration: --prefix=/ffbuild/prefix --pkg-config-flags=--static --pkg-config=pkg-config --cross-prefix=x86_64-w64-mingw32- --arch=x86_64 --target-os=mingw32 --enable-nonfree --enable-gpl --enable-version3 --disable-debug --disable-w32threads --enable-pthreads --enable-iconv --enable-libxml2 --enable-zlib --enable-libfreetype --enable-libfribidi --enable-gmp --enable-lzma --enable-fontconfig --enable-libvorbis --enable-opencl --disable-libpulse --enable-libvmaf --disable-libxcb --disable-xlib --enable-amf --enable-libaom --enable-libaribb24 --enable-avisynth --enable-chromaprint --enable-libdav1d --enable-libdavs2 --enable-libfdk-aac --enable-ffnvcodec --enable-cuda-llvm --enable-frei0r --enable-libgme --enable-libkvazaar --enable-libass --enable-libbluray --enable-libjxl --enable-libmp3lame --enable-libopus --enable-librist --enable-libssh --enable-libtheora --enable-libvpx --enable-libwebp --enable-lv2 --disable-libmfx --enable-libvpl --enable-openal --enable-libopencore-amrnb --enable-libopencore-amrwb --enable-libopenh264 --enable-libopenjpeg --enable-libopenmpt --enable-librav1e --enable-librubberband --enable-schannel --enable-sdl2 --enable-libsoxr --enable-libsrt --enable-libsvtav1 --enable-libtwolame --enable-libuavs3d --disable-libdrm --disable-vaapi --enable-libvidstab --enable-vulkan --enable-libshaderc --enable-libplacebo --enable-libx264 --enable-libx265 --enable-libxavs2 --enable-libxvid --enable-libzimg --enable-libzvbi --extra-cflags=-DLIBTWOLAME_STATIC --extra-cxxflags= --extra-ldflags=-pthread --extra-ldexeflags= --extra-libs=-lgomp --extra-version=20230302
  libavutil      58.  3.100 / 58.  3.100
  libavcodec     60.  5.100 / 60.  5.100
  libavformat    60.  4.100 / 60.  4.100
  libavdevice    60.  2.100 / 60.  2.100
  libavfilter     9.  4.100 /  9.  4.100
  libswscale      7.  2.100 /  7.  2.100
  libswresample   4. 11.100 /  4. 11.100
  libpostproc    57.  2.100 / 57.  2.100
Input #0, avi, from '200808.avi':
  Metadata:
    software        : Lavf58.49.100
  Duration: 00:02:01.05, start: 0.000000, bitrate: 745549 kb/s
  Stream #0:0: Video: rawvideo (I420 / 0x30323449), yuv420p, 1920x1080, 745750 kb/s, SAR 1:1 DAR 16:9, 29.97 fps, 29.97 tbr, 29.97 tbn
Stream mapping:
  Stream #0:0 -> #0:0 (rawvideo (native) -> hevc (hevc_nvenc))
Press [q] to stop, [?] for help
Incompatible pixel format 'yuv420p10le' for codec 'hevc_nvenc', auto-selecting format 'p010le'
Output #0, mp4, to '200808.avi.mp4':
    software        : Lavf58.49.100
    encoder         : Lavf60.4.100
  Metadata:
  Stream #0:0: Video: hevc (Main 10) (hev1 / 0x31766568), p010le(tv, bt709, progressive), 1920x1080 [SAR 1:1 DAR 16:9], q=2-31, 2000 kb/s, 29.97 fps, 30k tbn
    Metadata:
      encoder         : Lavc60.5.100 hevc_nvenc
    Side data:
      cpb: bitrate max/min/avg: 0/0/2000000 buffer size: 4000000 vbv_delay: N/A
[mp4 @ 0000019ffb2a4740] Starting second pass: moving the moov atom to the beginning of the file
frame= 3628 fps=124 q=23.0 Lsize=  216010kB time=00:02:00.92 bitrate=14634.0kbits/s dup=1 drop=0 speed=4.13x    
video:215977kB audio:0kB subtitle:0kB other streams:0kB global headers:0kB muxing overhead: 0.015330%
DEBUG ExitCode: 0
DEBUG Invoke-Process
File: ffmpeg
Arg: -y -nostats -i 200808.avi.mp4 -i 200808.avi -filter_complex libvmaf=model=version=vmaf_v0.6.1neg\\:name=vmaf_neg -an -f null -
ArgList:

ffmpeg version N-109952-g52a0852ae6-20230302 Copyright (c) 2000-2023 the FFmpeg developers
  built with gcc 12.2.0 (crosstool-NG 1.25.0.90_cf9beb1)
  configuration: --prefix=/ffbuild/prefix --pkg-config-flags=--static --pkg-config=pkg-config --cross-prefix=x86_64-w64-mingw32- --arch=x86_64 --target-os=mingw32 --enable-nonfree --enable-gpl --enable-version3 --disable-debug --disable-w32threads --enable-pthreads --enable-iconv --enable-libxml2 --enable-zlib --enable-libfreetype --enable-libfribidi --enable-gmp --enable-lzma --enable-fontconfig --enable-libvorbis --enable-opencl --disable-libpulse --enable-libvmaf --disable-libxcb --disable-xlib --enable-amf --enable-libaom --enable-libaribb24 --enable-avisynth --enable-chromaprint --enable-libdav1d --enable-libdavs2 --enable-libfdk-aac --enable-ffnvcodec --enable-cuda-llvm --enable-frei0r --enable-libgme --enable-libkvazaar --enable-libass --enable-libbluray --enable-libjxl --enable-libmp3lame --enable-libopus --enable-librist --enable-libssh --enable-libtheora --enable-libvpx --enable-libwebp --enable-lv2 --disable-libmfx --enable-libvpl --enable-openal --enable-libopencore-amrnb --enable-libopencore-amrwb --enable-libopenh264 --enable-libopenjpeg --enable-libopenmpt --enable-librav1e --enable-librubberband --enable-schannel --enable-sdl2 --enable-libsoxr --enable-libsrt --enable-libsvtav1 --enable-libtwolame --enable-libuavs3d --disable-libdrm --disable-vaapi --enable-libvidstab --enable-vulkan --enable-libshaderc --enable-libplacebo --enable-libx264 --enable-libx265 --enable-libxavs2 --enable-libxvid --enable-libzimg --enable-libzvbi --extra-cflags=-DLIBTWOLAME_STATIC --extra-cxxflags= --extra-ldflags=-pthread --extra-ldexeflags= --extra-libs=-lgomp --extra-version=20230302
  libavutil      58.  3.100 / 58.  3.100
  libavcodec     60.  5.100 / 60.  5.100
  libavformat    60.  4.100 / 60.  4.100
  libavdevice    60.  2.100 / 60.  2.100
  libavfilter     9.  4.100 /  9.  4.100
  libswscale      7.  2.100 /  7.  2.100
  libswresample   4. 11.100 /  4. 11.100
  libpostproc    57.  2.100 / 57.  2.100
Input #0, mov,mp4,m4a,3gp,3g2,mj2, from '200808.avi.mp4':
  Metadata:
    minor_version   : 512
    compatible_brands: isomiso2mp41
    encoder         : Lavf60.4.100
  Duration: 00:02:01.05, start: 0.000000, bitrate: 14617 kb/s
  Stream #0:0[0x1](und): Video: hevc (Main 10) (hev1 / 0x31766568), yuv420p10le(tv, bt709, progressive), 1920x1080 [SAR 1:1 DAR 16:9], 14615 kb/s, 29.97 fps, 29.97 tbr, 30k tbn (default)
    Metadata:
      handler_name    : VideoHandler
      vendor_id       : [0][0][0][0]
      encoder         : Lavc60.5.100 hevc_nvenc
    major_brand     : isom
Input #1, avi, from '200808.avi':
  Metadata:
    software        : Lavf58.49.100
  Duration: 00:02:01.05, start: 0.000000, bitrate: 745549 kb/s
  Stream #1:0: Video: rawvideo (I420 / 0x30323449), yuv420p, 1920x1080, 745750 kb/s, SAR 1:1 DAR 16:9, 29.97 fps, 29.97 tbr, 29.97 tbn
Stream mapping:
  Stream #0:0 (hevc) -> libvmaf
  libvmaf:default -> Stream #0:0 (wrapped_avframe)
Press [q] to stop, [?] for help
  Stream #1:0 (rawvideo) -> libvmaf
Output #0, null, to 'pipe:':
  Metadata:
    major_brand     : isom
    compatible_brands: isomiso2mp41
    encoder         : Lavf60.4.100
    minor_version   : 512
  Stream #0:0: Video: wrapped_avframe, yuv420p10le(tv, bt709, progressive), 1920x1080 [SAR 1:1 DAR 16:9], q=2-31, 200 kb/s, 29.97 fps, 29.97 tbn
    Metadata:
      encoder         : Lavc60.5.100 wrapped_avframe
frame= 3628 fps=6.7 q=-0.0 Lsize=N/A time=00:02:01.02 bitrate=N/A speed=0.222x    
video:1701kB audio:0kB subtitle:0kB other streams:0kB global headers:0kB muxing overhead: unknown
[Parsed_libvmaf_0 @ 000001d7d8fc7a00] VMAF score: 94.976335
DEBUG ExitCode: 0
DEBUG Invoke-Process
File: ffmpeg
Arg: -y -nostats -hwaccel nvdec -i 200808.avi -an -c:v hevc_nvenc -preset:v p7 -profile:v main10 -rc:v constqp -rc-lookahead 1 -spatial-aq 0 -temporal-aq 1 -weighted_pred 0 -init_qpI 21 -init_qpP 21 -init_qpB 24 -qp_cb_offset 12 -qp_cr_offset 12 -b_ref_mode 1 -dpb_size 4 -multipass 1 -g 60 -bf 3 -pix_fmt yuv420p10le -color_range tv -color_primaries bt709 -color_trc bt709 -colorspace bt709 -movflags +faststart 200808.avi.mp4
ArgList:

ffmpeg version N-109952-g52a0852ae6-20230302 Copyright (c) 2000-2023 the FFmpeg developers
  configuration: --prefix=/ffbuild/prefix --pkg-config-flags=--static --pkg-config=pkg-config --cross-prefix=x86_64-w64-mingw32- --arch=x86_64 --target-os=mingw32 --enable-nonfree --enable-gpl --enable-version3 --disable-debug --disable-w32threads --enable-pthreads --enable-iconv --enable-libxml2 --enable-zlib --enable-libfreetype --enable-libfribidi --enable-gmp --enable-lzma --enable-fontconfig --enable-libvorbis --enable-opencl --disable-libpulse --enable-libvmaf --disable-libxcb --disable-xlib --enable-amf --enable-libaom --enable-libaribb24 --enable-avisynth --enable-chromaprint --enable-libdav1d --enable-libdavs2 --enable-libfdk-aac --enable-ffnvcodec --enable-cuda-llvm --enable-frei0r --enable-libgme --enable-libkvazaar --enable-libass --enable-libbluray --enable-libjxl --enable-libmp3lame --enable-libopus --enable-librist --enable-libssh --enable-libtheora --enable-libvpx --enable-libwebp --enable-lv2 --disable-libmfx --enable-libvpl --enable-openal --enable-libopencore-amrnb --enable-libopencore-amrwb --enable-libopenh264 --enable-libopenjpeg --enable-libopenmpt --enable-librav1e --enable-librubberband --enable-schannel --enable-sdl2 --enable-libsoxr --enable-libsrt --enable-libsvtav1 --enable-libtwolame --enable-libuavs3d --disable-libdrm --disable-vaapi --enable-libvidstab --enable-vulkan --enable-libshaderc --enable-libplacebo --enable-libx264 --enable-libx265 --enable-libxavs2 --enable-libxvid --enable-libzimg --enable-libzvbi --extra-cflags=-DLIBTWOLAME_STATIC --extra-cxxflags= --extra-ldflags=-pthread --extra-ldexeflags= --extra-libs=-lgomp --extra-version=20230302
  libavutil      58.  3.100 / 58.  3.100
  libavcodec     60.  5.100 / 60.  5.100
  libavformat    60.  4.100 / 60.  4.100
  libavdevice    60.  2.100 / 60.  2.100
  libavfilter     9.  4.100 /  9.  4.100
  libswscale      7.  2.100 /  7.  2.100
  libswresample   4. 11.100 /  4. 11.100
  libpostproc    57.  2.100 / 57.  2.100
  built with gcc 12.2.0 (crosstool-NG 1.25.0.90_cf9beb1)
Input #0, avi, from '200808.avi':
  Metadata:
    software        : Lavf58.49.100
  Duration: 00:02:01.05, start: 0.000000, bitrate: 745549 kb/s
  Stream #0:0: Video: rawvideo (I420 / 0x30323449), yuv420p, 1920x1080, 745750 kb/s, SAR 1:1 DAR 16:9, 29.97 fps, 29.97 tbr, 29.97 tbn
Stream mapping:
  Stream #0:0 -> #0:0 (rawvideo (native) -> hevc (hevc_nvenc))
Press [q] to stop, [?] for help
Incompatible pixel format 'yuv420p10le' for codec 'hevc_nvenc', auto-selecting format 'p010le'
Output #0, mp4, to '200808.avi.mp4':
    software        : Lavf58.49.100
    encoder         : Lavf60.4.100
  Stream #0:0: Video: hevc (Main 10) (hev1 / 0x31766568), p010le(tv, bt709, progressive), 1920x1080 [SAR 1:1 DAR 16:9], q=2-31, 2000 kb/s, 29.97 fps, 30k tbn
    Metadata:
  Metadata:
      encoder         : Lavc60.5.100 hevc_nvenc
    Side data:
      cpb: bitrate max/min/avg: 0/0/2000000 buffer size: 4000000 vbv_delay: N/A
[mp4 @ 000002152a5b4740] Starting second pass: moving the moov atom to the beginning of the file
frame= 3628 fps=128 q=23.0 Lsize=  119091kB time=00:02:00.92 bitrate=8068.1kbits/s dup=1 drop=0 speed=4.26x    
video:119059kB audio:0kB subtitle:0kB other streams:0kB global headers:0kB muxing overhead: 0.026789%
DEBUG ExitCode: 0
DEBUG Invoke-Process
File: ffmpeg
Arg: -y -nostats -i 200808.avi.mp4 -i 200808.avi -filter_complex libvmaf=model=version=vmaf_v0.6.1neg\\:name=vmaf_neg -an -f null -
ArgList:

ffmpeg version N-109952-g52a0852ae6-20230302 Copyright (c) 2000-2023 the FFmpeg developers
  built with gcc 12.2.0 (crosstool-NG 1.25.0.90_cf9beb1)
  configuration: --prefix=/ffbuild/prefix --pkg-config-flags=--static --pkg-config=pkg-config --cross-prefix=x86_64-w64-mingw32- --arch=x86_64 --target-os=mingw32 --enable-nonfree --enable-gpl --enable-version3 --disable-debug --disable-w32threads --enable-pthreads --enable-iconv --enable-libxml2 --enable-zlib --enable-libfreetype --enable-libfribidi --enable-gmp --enable-lzma --enable-fontconfig --enable-libvorbis --enable-opencl --disable-libpulse --enable-libvmaf --disable-libxcb --disable-xlib --enable-amf --enable-libaom --enable-libaribb24 --enable-avisynth --enable-chromaprint --enable-libdav1d --enable-libdavs2 --enable-libfdk-aac --enable-ffnvcodec --enable-cuda-llvm --enable-frei0r --enable-libgme --enable-libkvazaar --enable-libass --enable-libbluray --enable-libjxl --enable-libmp3lame --enable-libopus --enable-librist --enable-libssh --enable-libtheora --enable-libvpx --enable-libwebp --enable-lv2 --disable-libmfx --enable-libvpl --enable-openal --enable-libopencore-amrnb --enable-libopencore-amrwb --enable-libopenh264 --enable-libopenjpeg --enable-libopenmpt --enable-librav1e --enable-librubberband --enable-schannel --enable-sdl2 --enable-libsoxr --enable-libsrt --enable-libsvtav1 --enable-libtwolame --enable-libuavs3d --disable-libdrm --disable-vaapi --enable-libvidstab --enable-vulkan --enable-libshaderc --enable-libplacebo --enable-libx264 --enable-libx265 --enable-libxavs2 --enable-libxvid --enable-libzimg --enable-libzvbi --extra-cflags=-DLIBTWOLAME_STATIC --extra-cxxflags= --extra-ldflags=-pthread --extra-ldexeflags= --extra-libs=-lgomp --extra-version=20230302
  libavutil      58.  3.100 / 58.  3.100
  libavcodec     60.  5.100 / 60.  5.100
  libavformat    60.  4.100 / 60.  4.100
  libavdevice    60.  2.100 / 60.  2.100
  libavfilter     9.  4.100 /  9.  4.100
  libswresample   4. 11.100 /  4. 11.100
  libpostproc    57.  2.100 / 57.  2.100
  libswscale      7.  2.100 /  7.  2.100
Input #0, mov,mp4,m4a,3gp,3g2,mj2, from '200808.avi.mp4':
  Metadata:
    major_brand     : isom
    minor_version   : 512
    compatible_brands: isomiso2mp41
    encoder         : Lavf60.4.100
  Duration: 00:02:01.05, start: 0.000000, bitrate: 8059 kb/s
  Stream #0:0[0x1](und): Video: hevc (Main 10) (hev1 / 0x31766568), yuv420p10le(tv, bt709, progressive), 1920x1080 [SAR 1:1 DAR 16:9], 8057 kb/s, 29.97 fps, 29.97 tbr, 30k tbn (default)
    Metadata:
      handler_name    : VideoHandler
      vendor_id       : [0][0][0][0]
      encoder         : Lavc60.5.100 hevc_nvenc
Input #1, avi, from '200808.avi':
  Metadata:
    software        : Lavf58.49.100
  Duration: 00:02:01.05, start: 0.000000, bitrate: 745549 kb/s
  Stream #1:0: Video: rawvideo (I420 / 0x30323449), yuv420p, 1920x1080, 745750 kb/s, SAR 1:1 DAR 16:9, 29.97 fps, 29.97 tbr, 29.97 tbn
Stream mapping:
  Stream #0:0 (hevc) -> libvmaf
  libvmaf:default -> Stream #0:0 (wrapped_avframe)
Press [q] to stop, [?] for help
  Stream #1:0 (rawvideo) -> libvmaf
Output #0, null, to 'pipe:':
    major_brand     : isom
    minor_version   : 512
    compatible_brands: isomiso2mp41
    encoder         : Lavf60.4.100
  Metadata:
  Stream #0:0: Video: wrapped_avframe, yuv420p10le(tv, bt709, progressive), 1920x1080 [SAR 1:1 DAR 16:9], q=2-31, 200 kb/s, 29.97 fps, 29.97 tbn
    Metadata:
      encoder         : Lavc60.5.100 wrapped_avframe
frame= 3628 fps=6.5 q=-0.0 Lsize=N/A time=00:02:01.02 bitrate=N/A speed=0.215x    
video:1701kB audio:0kB subtitle:0kB other streams:0kB global headers:0kB muxing overhead: unknown
[Parsed_libvmaf_0 @ 0000020f745bef00] VMAF score: 94.983610
DEBUG ExitCode: 0
DEBUG Invoke-Process
File: ffmpeg
Arg: -y -nostats -hwaccel nvdec -i 200808.avi -an -c:v hevc_nvenc -preset:v p7 -profile:v main10 -rc:v constqp -rc-lookahead 1 -spatial-aq 0 -temporal-aq 1 -weighted_pred 0 -init_qpI 21 -init_qpP 21 -init_qpB 24 -qp_cb_offset 8 -qp_cr_offset 8 -b_ref_mode 1 -dpb_size 4 -multipass 1 -g 60 -bf 3 -pix_fmt yuv420p10le -color_range tv -color_primaries bt709 -color_trc bt709 -colorspace bt709 -movflags +faststart 200808.avi.mp4
ArgList:

ffmpeg version N-109952-g52a0852ae6-20230302 Copyright (c) 2000-2023 the FFmpeg developers
  built with gcc 12.2.0 (crosstool-NG 1.25.0.90_cf9beb1)
  configuration: --prefix=/ffbuild/prefix --pkg-config-flags=--static --pkg-config=pkg-config --cross-prefix=x86_64-w64-mingw32- --arch=x86_64 --target-os=mingw32 --enable-nonfree --enable-gpl --enable-version3 --disable-debug --disable-w32threads --enable-pthreads --enable-iconv --enable-libxml2 --enable-zlib --enable-libfreetype --enable-libfribidi --enable-gmp --enable-lzma --enable-fontconfig --enable-libvorbis --enable-opencl --disable-libpulse --enable-libvmaf --disable-libxcb --disable-xlib --enable-amf --enable-libaom --enable-libaribb24 --enable-avisynth --enable-chromaprint --enable-libdav1d --enable-libdavs2 --enable-libfdk-aac --enable-ffnvcodec --enable-cuda-llvm --enable-frei0r --enable-libgme --enable-libkvazaar --enable-libass --enable-libbluray --enable-libjxl --enable-libmp3lame --enable-libopus --enable-librist --enable-libssh --enable-libtheora --enable-libvpx --enable-libwebp --enable-lv2 --disable-libmfx --enable-libvpl --enable-openal --enable-libopencore-amrnb --enable-libopencore-amrwb --enable-libopenh264 --enable-libopenjpeg --enable-libopenmpt --enable-librav1e --enable-librubberband --enable-schannel --enable-sdl2 --enable-libsoxr --enable-libsrt --enable-libsvtav1 --enable-libtwolame --enable-libuavs3d --disable-libdrm --disable-vaapi --enable-libvidstab --enable-vulkan --enable-libshaderc --enable-libplacebo --enable-libx264 --enable-libx265 --enable-libxavs2 --enable-libxvid --enable-libzimg --enable-libzvbi --extra-cflags=-DLIBTWOLAME_STATIC --extra-cxxflags= --extra-ldflags=-pthread --extra-ldexeflags= --extra-libs=-lgomp --extra-version=20230302
  libavutil      58.  3.100 / 58.  3.100
  libavcodec     60.  5.100 / 60.  5.100
  libavformat    60.  4.100 / 60.  4.100
  libavdevice    60.  2.100 / 60.  2.100
  libavfilter     9.  4.100 /  9.  4.100
  libswscale      7.  2.100 /  7.  2.100
  libswresample   4. 11.100 /  4. 11.100
  libpostproc    57.  2.100 / 57.  2.100
Input #0, avi, from '200808.avi':
    software        : Lavf58.49.100
  Duration: 00:02:01.05, start: 0.000000, bitrate: 745549 kb/s
  Stream #0:0: Video: rawvideo (I420 / 0x30323449), yuv420p, 1920x1080, 745750 kb/s, SAR 1:1 DAR 16:9, 29.97 fps, 29.97 tbr, 29.97 tbn
  Metadata:
Stream mapping:
  Stream #0:0 -> #0:0 (rawvideo (native) -> hevc (hevc_nvenc))
Press [q] to stop, [?] for help
Incompatible pixel format 'yuv420p10le' for codec 'hevc_nvenc', auto-selecting format 'p010le'
Output #0, mp4, to '200808.avi.mp4':
  Metadata:
    software        : Lavf58.49.100
    encoder         : Lavf60.4.100
  Stream #0:0: Video: hevc (Main 10) (hev1 / 0x31766568), p010le(tv, bt709, progressive), 1920x1080 [SAR 1:1 DAR 16:9], q=2-31, 2000 kb/s, 29.97 fps, 30k tbn
    Metadata:
      encoder         : Lavc60.5.100 hevc_nvenc
      cpb: bitrate max/min/avg: 0/0/2000000 buffer size: 4000000 vbv_delay: N/A
    Side data:
[mp4 @ 0000012125814740] Starting second pass: moving the moov atom to the beginning of the file
frame= 3628 fps=128 q=23.0 Lsize=  120515kB time=00:02:00.92 bitrate=8164.5kbits/s dup=1 drop=0 speed=4.27x    
video:120484kB audio:0kB subtitle:0kB other streams:0kB global headers:0kB muxing overhead: 0.026495%
DEBUG ExitCode: 0
DEBUG Invoke-Process
File: ffmpeg
Arg: -y -nostats -i 200808.avi.mp4 -i 200808.avi -filter_complex libvmaf=model=version=vmaf_v0.6.1neg\\:name=vmaf_neg -an -f null -
ArgList:

ffmpeg version N-109952-g52a0852ae6-20230302 Copyright (c) 2000-2023 the FFmpeg developers
  built with gcc 12.2.0 (crosstool-NG 1.25.0.90_cf9beb1)
  configuration: --prefix=/ffbuild/prefix --pkg-config-flags=--static --pkg-config=pkg-config --cross-prefix=x86_64-w64-mingw32- --arch=x86_64 --target-os=mingw32 --enable-nonfree --enable-gpl --enable-version3 --disable-debug --disable-w32threads --enable-pthreads --enable-iconv --enable-libxml2 --enable-zlib --enable-libfreetype --enable-libfribidi --enable-gmp --enable-lzma --enable-fontconfig --enable-libvorbis --enable-opencl --disable-libpulse --enable-libvmaf --disable-libxcb --disable-xlib --enable-amf --enable-libaom --enable-libaribb24 --enable-avisynth --enable-chromaprint --enable-libdav1d --enable-libdavs2 --enable-libfdk-aac --enable-ffnvcodec --enable-cuda-llvm --enable-frei0r --enable-libgme --enable-libkvazaar --enable-libass --enable-libbluray --enable-libjxl --enable-libmp3lame --enable-libopus --enable-librist --enable-libssh --enable-libtheora --enable-libvpx --enable-libwebp --enable-lv2 --disable-libmfx --enable-libvpl --enable-openal --enable-libopencore-amrnb --enable-libopencore-amrwb --enable-libopenh264 --enable-libopenjpeg --enable-libopenmpt --enable-librav1e --enable-librubberband --enable-schannel --enable-sdl2 --enable-libsoxr --enable-libsrt --enable-libsvtav1 --enable-libtwolame --enable-libuavs3d --disable-libdrm --disable-vaapi --enable-libvidstab --enable-vulkan --enable-libshaderc --enable-libplacebo --enable-libx264 --enable-libx265 --enable-libxavs2 --enable-libxvid --enable-libzimg --enable-libzvbi --extra-cflags=-DLIBTWOLAME_STATIC --extra-cxxflags= --extra-ldflags=-pthread --extra-ldexeflags= --extra-libs=-lgomp --extra-version=20230302
  libavutil      58.  3.100 / 58.  3.100
  libavcodec     60.  5.100 / 60.  5.100
  libavformat    60.  4.100 / 60.  4.100
  libavdevice    60.  2.100 / 60.  2.100
  libavfilter     9.  4.100 /  9.  4.100
  libswscale      7.  2.100 /  7.  2.100
  libswresample   4. 11.100 /  4. 11.100
  libpostproc    57.  2.100 / 57.  2.100
Input #0, mov,mp4,m4a,3gp,3g2,mj2, from '200808.avi.mp4':
  Metadata:
    minor_version   : 512
    compatible_brands: isomiso2mp41
    encoder         : Lavf60.4.100
  Duration: 00:02:01.05, start: 0.000000, bitrate: 8155 kb/s
  Stream #0:0[0x1](und): Video: hevc (Main 10) (hev1 / 0x31766568), yuv420p10le(tv, bt709, progressive), 1920x1080 [SAR 1:1 DAR 16:9], 8153 kb/s, 29.97 fps, 29.97 tbr, 30k tbn (default)
    Metadata:
      handler_name    : VideoHandler
      vendor_id       : [0][0][0][0]
      encoder         : Lavc60.5.100 hevc_nvenc
    major_brand     : isom
Input #1, avi, from '200808.avi':
  Metadata:
    software        : Lavf58.49.100
  Duration: 00:02:01.05, start: 0.000000, bitrate: 745549 kb/s
  Stream #1:0: Video: rawvideo (I420 / 0x30323449), yuv420p, 1920x1080, 745750 kb/s, SAR 1:1 DAR 16:9, 29.97 fps, 29.97 tbr, 29.97 tbn
Stream mapping:
  Stream #0:0 (hevc) -> libvmaf
  Stream #1:0 (rawvideo) -> libvmaf
  libvmaf:default -> Stream #0:0 (wrapped_avframe)
Press [q] to stop, [?] for help
Output #0, null, to 'pipe:':
    major_brand     : isom
    minor_version   : 512
    compatible_brands: isomiso2mp41
    encoder         : Lavf60.4.100
  Stream #0:0: Video: wrapped_avframe, yuv420p10le(tv, bt709, progressive), 1920x1080 [SAR 1:1 DAR 16:9], q=2-31, 200 kb/s, 29.97 fps, 29.97 tbn
    Metadata:
      encoder         : Lavc60.5.100 wrapped_avframe
  Metadata:
frame= 3628 fps=6.2 q=-0.0 Lsize=N/A time=00:02:01.02 bitrate=N/A speed=0.208x    
video:1701kB audio:0kB subtitle:0kB other streams:0kB global headers:0kB muxing overhead: unknown
[Parsed_libvmaf_0 @ 000001c8640b7a00] VMAF score: 94.981272
DEBUG ExitCode: 0
DEBUG Invoke-Process
File: ffmpeg
Arg: -y -nostats -hwaccel nvdec -i 200808.avi -an -c:v hevc_nvenc -preset:v p7 -profile:v main10 -rc:v constqp -rc-lookahead 1 -spatial-aq 0 -temporal-aq 1 -weighted_pred 0 -init_qpI 21 -init_qpP 21 -init_qpB 24 -qp_cb_offset 4 -qp_cr_offset 4 -b_ref_mode 1 -dpb_size 4 -multipass 1 -g 60 -bf 3 -pix_fmt yuv420p10le -color_range tv -color_primaries bt709 -color_trc bt709 -colorspace bt709 -movflags +faststart 200808.avi.mp4
ArgList:

ffmpeg version N-109952-g52a0852ae6-20230302 Copyright (c) 2000-2023 the FFmpeg developers
  built with gcc 12.2.0 (crosstool-NG 1.25.0.90_cf9beb1)
  configuration: --prefix=/ffbuild/prefix --pkg-config-flags=--static --pkg-config=pkg-config --cross-prefix=x86_64-w64-mingw32- --arch=x86_64 --target-os=mingw32 --enable-nonfree --enable-gpl --enable-version3 --disable-debug --disable-w32threads --enable-pthreads --enable-iconv --enable-libxml2 --enable-zlib --enable-libfreetype --enable-libfribidi --enable-gmp --enable-lzma --enable-fontconfig --enable-libvorbis --enable-opencl --disable-libpulse --enable-libvmaf --disable-libxcb --disable-xlib --enable-amf --enable-libaom --enable-libaribb24 --enable-avisynth --enable-chromaprint --enable-libdav1d --enable-libdavs2 --enable-libfdk-aac --enable-ffnvcodec --enable-cuda-llvm --enable-frei0r --enable-libgme --enable-libkvazaar --enable-libass --enable-libbluray --enable-libjxl --enable-libmp3lame --enable-libopus --enable-librist --enable-libssh --enable-libtheora --enable-libvpx --enable-libwebp --enable-lv2 --disable-libmfx --enable-libvpl --enable-openal --enable-libopencore-amrnb --enable-libopencore-amrwb --enable-libopenh264 --enable-libopenjpeg --enable-libopenmpt --enable-librav1e --enable-librubberband --enable-schannel --enable-sdl2 --enable-libsoxr --enable-libsrt --enable-libsvtav1 --enable-libtwolame --enable-libuavs3d --disable-libdrm --disable-vaapi --enable-libvidstab --enable-vulkan --enable-libshaderc --enable-libplacebo --enable-libx264 --enable-libx265 --enable-libxavs2 --enable-libxvid --enable-libzimg --enable-libzvbi --extra-cflags=-DLIBTWOLAME_STATIC --extra-cxxflags= --extra-ldflags=-pthread --extra-ldexeflags= --extra-libs=-lgomp --extra-version=20230302
  libavutil      58.  3.100 / 58.  3.100
  libavcodec     60.  5.100 / 60.  5.100
  libavformat    60.  4.100 / 60.  4.100
  libavdevice    60.  2.100 / 60.  2.100
  libavfilter     9.  4.100 /  9.  4.100
  libswscale      7.  2.100 /  7.  2.100
  libswresample   4. 11.100 /  4. 11.100
  libpostproc    57.  2.100 / 57.  2.100
Input #0, avi, from '200808.avi':
  Metadata:
  Duration: 00:02:01.05, start: 0.000000, bitrate: 745549 kb/s
  Stream #0:0: Video: rawvideo (I420 / 0x30323449), yuv420p, 1920x1080, 745750 kb/s, SAR 1:1 DAR 16:9, 29.97 fps, 29.97 tbr, 29.97 tbn
    software        : Lavf58.49.100
Stream mapping:
Press [q] to stop, [?] for help
  Stream #0:0 -> #0:0 (rawvideo (native) -> hevc (hevc_nvenc))
Incompatible pixel format 'yuv420p10le' for codec 'hevc_nvenc', auto-selecting format 'p010le'
Output #0, mp4, to '200808.avi.mp4':
  Metadata:
    software        : Lavf58.49.100
    encoder         : Lavf60.4.100
  Stream #0:0: Video: hevc (Main 10) (hev1 / 0x31766568), p010le(tv, bt709, progressive), 1920x1080 [SAR 1:1 DAR 16:9], q=2-31, 2000 kb/s, 29.97 fps, 30k tbn
    Metadata:
      encoder         : Lavc60.5.100 hevc_nvenc
      cpb: bitrate max/min/avg: 0/0/2000000 buffer size: 4000000 vbv_delay: N/A
    Side data:
[mp4 @ 000001cbccdd4740] Starting second pass: moving the moov atom to the beginning of the file
frame= 3628 fps=126 q=23.0 Lsize=  125757kB time=00:02:00.92 bitrate=8519.7kbits/s dup=1 drop=0 speed= 4.2x    
video:125725kB audio:0kB subtitle:0kB other streams:0kB global headers:0kB muxing overhead: 0.025399%
DEBUG ExitCode: 0
DEBUG Invoke-Process
File: ffmpeg
Arg: -y -nostats -i 200808.avi.mp4 -i 200808.avi -filter_complex libvmaf=model=version=vmaf_v0.6.1neg\\:name=vmaf_neg -an -f null -
ArgList:

ffmpeg version N-109952-g52a0852ae6-20230302 Copyright (c) 2000-2023 the FFmpeg developers
  built with gcc 12.2.0 (crosstool-NG 1.25.0.90_cf9beb1)
  libavutil      58.  3.100 / 58.  3.100
  libavcodec     60.  5.100 / 60.  5.100
  libavformat    60.  4.100 / 60.  4.100
  libavdevice    60.  2.100 / 60.  2.100
  libswscale      7.  2.100 /  7.  2.100
  libswresample   4. 11.100 /  4. 11.100
  libpostproc    57.  2.100 / 57.  2.100
  configuration: --prefix=/ffbuild/prefix --pkg-config-flags=--static --pkg-config=pkg-config --cross-prefix=x86_64-w64-mingw32- --arch=x86_64 --target-os=mingw32 --enable-nonfree --enable-gpl --enable-version3 --disable-debug --disable-w32threads --enable-pthreads --enable-iconv --enable-libxml2 --enable-zlib --enable-libfreetype --enable-libfribidi --enable-gmp --enable-lzma --enable-fontconfig --enable-libvorbis --enable-opencl --disable-libpulse --enable-libvmaf --disable-libxcb --disable-xlib --enable-amf --enable-libaom --enable-libaribb24 --enable-avisynth --enable-chromaprint --enable-libdav1d --enable-libdavs2 --enable-libfdk-aac --enable-ffnvcodec --enable-cuda-llvm --enable-frei0r --enable-libgme --enable-libkvazaar --enable-libass --enable-libbluray --enable-libjxl --enable-libmp3lame --enable-libopus --enable-librist --enable-libssh --enable-libtheora --enable-libvpx --enable-libwebp --enable-lv2 --disable-libmfx --enable-libvpl --enable-openal --enable-libopencore-amrnb --enable-libopencore-amrwb --enable-libopenh264 --enable-libopenjpeg --enable-libopenmpt --enable-librav1e --enable-librubberband --enable-schannel --enable-sdl2 --enable-libsoxr --enable-libsrt --enable-libsvtav1 --enable-libtwolame --enable-libuavs3d --disable-libdrm --disable-vaapi --enable-libvidstab --enable-vulkan --enable-libshaderc --enable-libplacebo --enable-libx264 --enable-libx265 --enable-libxavs2 --enable-libxvid --enable-libzimg --enable-libzvbi --extra-cflags=-DLIBTWOLAME_STATIC --extra-cxxflags= --extra-ldflags=-pthread --extra-ldexeflags= --extra-libs=-lgomp --extra-version=20230302
  libavfilter     9.  4.100 /  9.  4.100
Input #0, mov,mp4,m4a,3gp,3g2,mj2, from '200808.avi.mp4':
  Metadata:
    major_brand     : isom
    minor_version   : 512
    compatible_brands: isomiso2mp41
    encoder         : Lavf60.4.100
  Duration: 00:02:01.05, start: 0.000000, bitrate: 8510 kb/s
  Stream #0:0[0x1](und): Video: hevc (Main 10) (hev1 / 0x31766568), yuv420p10le(tv, bt709, progressive), 1920x1080 [SAR 1:1 DAR 16:9], 8508 kb/s, 29.97 fps, 29.97 tbr, 30k tbn (default)
    Metadata:
      handler_name    : VideoHandler
      vendor_id       : [0][0][0][0]
      encoder         : Lavc60.5.100 hevc_nvenc
Input #1, avi, from '200808.avi':
  Metadata:
    software        : Lavf58.49.100
  Duration: 00:02:01.05, start: 0.000000, bitrate: 745549 kb/s
  Stream #1:0: Video: rawvideo (I420 / 0x30323449), yuv420p, 1920x1080, 745750 kb/s, SAR 1:1 DAR 16:9, 29.97 fps, 29.97 tbr, 29.97 tbn
Stream mapping:
  Stream #1:0 (rawvideo) -> libvmaf
  Stream #0:0 (hevc) -> libvmaf
  libvmaf:default -> Stream #0:0 (wrapped_avframe)
Press [q] to stop, [?] for help
Output #0, null, to 'pipe:':
  Metadata:
    major_brand     : isom
    minor_version   : 512
    compatible_brands: isomiso2mp41
    encoder         : Lavf60.4.100
  Stream #0:0: Video: wrapped_avframe, yuv420p10le(tv, bt709, progressive), 1920x1080 [SAR 1:1 DAR 16:9], q=2-31, 200 kb/s, 29.97 fps, 29.97 tbn
    Metadata:
      encoder         : Lavc60.5.100 wrapped_avframe
frame= 3628 fps=7.3 q=-0.0 Lsize=N/A time=00:02:01.02 bitrate=N/A speed=0.243x    
video:1701kB audio:0kB subtitle:0kB other streams:0kB global headers:0kB muxing overhead: unknown
[Parsed_libvmaf_0 @ 0000026999507a00] VMAF score: 94.978959
DEBUG ExitCode: 0
DEBUG Invoke-Process
File: ffmpeg
Arg: -y -nostats -hwaccel nvdec -i 200808.avi -an -c:v hevc_nvenc -preset:v p7 -profile:v main10 -rc:v constqp -rc-lookahead 1 -spatial-aq 0 -temporal-aq 1 -weighted_pred 0 -init_qpI 21 -init_qpP 21 -init_qpB 24 -qp_cb_offset 12 -qp_cr_offset 0 -b_ref_mode 1 -dpb_size 4 -multipass 1 -g 60 -bf 3 -pix_fmt yuv420p10le -color_range tv -color_primaries bt709 -color_trc bt709 -colorspace bt709 -movflags +faststart 200808.avi.mp4
ArgList:

ffmpeg version N-109952-g52a0852ae6-20230302 Copyright (c) 2000-2023 the FFmpeg developers
  built with gcc 12.2.0 (crosstool-NG 1.25.0.90_cf9beb1)
  configuration: --prefix=/ffbuild/prefix --pkg-config-flags=--static --pkg-config=pkg-config --cross-prefix=x86_64-w64-mingw32- --arch=x86_64 --target-os=mingw32 --enable-nonfree --enable-gpl --enable-version3 --disable-debug --disable-w32threads --enable-pthreads --enable-iconv --enable-libxml2 --enable-zlib --enable-libfreetype --enable-libfribidi --enable-gmp --enable-lzma --enable-fontconfig --enable-libvorbis --enable-opencl --disable-libpulse --enable-libvmaf --disable-libxcb --disable-xlib --enable-amf --enable-libaom --enable-libaribb24 --enable-avisynth --enable-chromaprint --enable-libdav1d --enable-libdavs2 --enable-libfdk-aac --enable-ffnvcodec --enable-cuda-llvm --enable-frei0r --enable-libgme --enable-libkvazaar --enable-libass --enable-libbluray --enable-libjxl --enable-libmp3lame --enable-libopus --enable-librist --enable-libssh --enable-libtheora --enable-libvpx --enable-libwebp --enable-lv2 --disable-libmfx --enable-libvpl --enable-openal --enable-libopencore-amrnb --enable-libopencore-amrwb --enable-libopenh264 --enable-libopenjpeg --enable-libopenmpt --enable-librav1e --enable-librubberband --enable-schannel --enable-sdl2 --enable-libsoxr --enable-libsrt --enable-libsvtav1 --enable-libtwolame --enable-libuavs3d --disable-libdrm --disable-vaapi --enable-libvidstab --enable-vulkan --enable-libshaderc --enable-libplacebo --enable-libx264 --enable-libx265 --enable-libxavs2 --enable-libxvid --enable-libzimg --enable-libzvbi --extra-cflags=-DLIBTWOLAME_STATIC --extra-cxxflags= --extra-ldflags=-pthread --extra-ldexeflags= --extra-libs=-lgomp --extra-version=20230302
  libavutil      58.  3.100 / 58.  3.100
  libavcodec     60.  5.100 / 60.  5.100
  libavformat    60.  4.100 / 60.  4.100
  libavdevice    60.  2.100 / 60.  2.100
  libavfilter     9.  4.100 /  9.  4.100
  libswscale      7.  2.100 /  7.  2.100
  libswresample   4. 11.100 /  4. 11.100
  libpostproc    57.  2.100 / 57.  2.100
Input #0, avi, from '200808.avi':
  Metadata:
    software        : Lavf58.49.100
  Duration: 00:02:01.05, start: 0.000000, bitrate: 745549 kb/s
  Stream #0:0: Video: rawvideo (I420 / 0x30323449), yuv420p, 1920x1080, 745750 kb/s, SAR 1:1 DAR 16:9, 29.97 fps, 29.97 tbr, 29.97 tbn
Stream mapping:
  Stream #0:0 -> #0:0 (rawvideo (native) -> hevc (hevc_nvenc))
Press [q] to stop, [?] for help
Incompatible pixel format 'yuv420p10le' for codec 'hevc_nvenc', auto-selecting format 'p010le'
Output #0, mp4, to '200808.avi.mp4':
  Metadata:
    software        : Lavf58.49.100
    encoder         : Lavf60.4.100
  Stream #0:0: Video: hevc (Main 10) (hev1 / 0x31766568), p010le(tv, bt709, progressive), 1920x1080 [SAR 1:1 DAR 16:9], q=2-31, 2000 kb/s, 29.97 fps, 30k tbn
    Metadata:
      encoder         : Lavc60.5.100 hevc_nvenc
    Side data:
      cpb: bitrate max/min/avg: 0/0/2000000 buffer size: 4000000 vbv_delay: N/A
[mp4 @ 000001687fb44740] Starting second pass: moving the moov atom to the beginning of the file
frame= 3628 fps=128 q=23.0 Lsize=  130528kB time=00:02:00.92 bitrate=8842.8kbits/s dup=1 drop=0 speed=4.26x    
video:130496kB audio:0kB subtitle:0kB other streams:0kB global headers:0kB muxing overhead: 0.024584%
DEBUG ExitCode: 0
DEBUG Invoke-Process
File: ffmpeg
Arg: -y -nostats -i 200808.avi.mp4 -i 200808.avi -filter_complex libvmaf=model=version=vmaf_v0.6.1neg\\:name=vmaf_neg -an -f null -
ArgList:

ffmpeg version N-109952-g52a0852ae6-20230302 Copyright (c) 2000-2023 the FFmpeg developers
  built with gcc 12.2.0 (crosstool-NG 1.25.0.90_cf9beb1)
  configuration: --prefix=/ffbuild/prefix --pkg-config-flags=--static --pkg-config=pkg-config --cross-prefix=x86_64-w64-mingw32- --arch=x86_64 --target-os=mingw32 --enable-nonfree --enable-gpl --enable-version3 --disable-debug --disable-w32threads --enable-pthreads --enable-iconv --enable-libxml2 --enable-zlib --enable-libfreetype --enable-libfribidi --enable-gmp --enable-lzma --enable-fontconfig --enable-libvorbis --enable-opencl --disable-libpulse --enable-libvmaf --disable-libxcb --disable-xlib --enable-amf --enable-libaom --enable-libaribb24 --enable-avisynth --enable-chromaprint --enable-libdav1d --enable-libdavs2 --enable-libfdk-aac --enable-ffnvcodec --enable-cuda-llvm --enable-frei0r --enable-libgme --enable-libkvazaar --enable-libass --enable-libbluray --enable-libjxl --enable-libmp3lame --enable-libopus --enable-librist --enable-libssh --enable-libtheora --enable-libvpx --enable-libwebp --enable-lv2 --disable-libmfx --enable-libvpl --enable-openal --enable-libopencore-amrnb --enable-libopencore-amrwb --enable-libopenh264 --enable-libopenjpeg --enable-libopenmpt --enable-librav1e --enable-librubberband --enable-schannel --enable-sdl2 --enable-libsoxr --enable-libsrt --enable-libsvtav1 --enable-libtwolame --enable-libuavs3d --disable-libdrm --disable-vaapi --enable-libvidstab --enable-vulkan --enable-libshaderc --enable-libplacebo --enable-libx264 --enable-libx265 --enable-libxavs2 --enable-libxvid --enable-libzimg --enable-libzvbi --extra-cflags=-DLIBTWOLAME_STATIC --extra-cxxflags= --extra-ldflags=-pthread --extra-ldexeflags= --extra-libs=-lgomp --extra-version=20230302
  libavutil      58.  3.100 / 58.  3.100
  libavcodec     60.  5.100 / 60.  5.100
  libavformat    60.  4.100 / 60.  4.100
  libavdevice    60.  2.100 / 60.  2.100
  libavfilter     9.  4.100 /  9.  4.100
  libswscale      7.  2.100 /  7.  2.100
  libswresample   4. 11.100 /  4. 11.100
  libpostproc    57.  2.100 / 57.  2.100
Input #0, mov,mp4,m4a,3gp,3g2,mj2, from '200808.avi.mp4':
    major_brand     : isom
    minor_version   : 512
    compatible_brands: isomiso2mp41
    encoder         : Lavf60.4.100
  Duration: 00:02:01.05, start: 0.000000, bitrate: 8833 kb/s
  Stream #0:0[0x1](und): Video: hevc (Main 10) (hev1 / 0x31766568), yuv420p10le(tv, bt709, progressive), 1920x1080 [SAR 1:1 DAR 16:9], 8830 kb/s, 29.97 fps, 29.97 tbr, 30k tbn (default)
    Metadata:
      handler_name    : VideoHandler
      vendor_id       : [0][0][0][0]
      encoder         : Lavc60.5.100 hevc_nvenc
  Metadata:
Input #1, avi, from '200808.avi':
  Metadata:
    software        : Lavf58.49.100
  Duration: 00:02:01.05, start: 0.000000, bitrate: 745549 kb/s
  Stream #1:0: Video: rawvideo (I420 / 0x30323449), yuv420p, 1920x1080, 745750 kb/s, SAR 1:1 DAR 16:9, 29.97 fps, 29.97 tbr, 29.97 tbn
Stream mapping:
  Stream #0:0 (hevc) -> libvmaf
  libvmaf:default -> Stream #0:0 (wrapped_avframe)
Press [q] to stop, [?] for help
  Stream #1:0 (rawvideo) -> libvmaf
Output #0, null, to 'pipe:':
    major_brand     : isom
    minor_version   : 512
    compatible_brands: isomiso2mp41
    encoder         : Lavf60.4.100
  Stream #0:0: Video: wrapped_avframe, yuv420p10le(tv, bt709, progressive), 1920x1080 [SAR 1:1 DAR 16:9], q=2-31, 200 kb/s, 29.97 fps, 29.97 tbn
    Metadata:
      encoder         : Lavc60.5.100 wrapped_avframe
  Metadata:
frame= 3628 fps=7.4 q=-0.0 Lsize=N/A time=00:02:01.02 bitrate=N/A speed=0.247x    
video:1701kB audio:0kB subtitle:0kB other streams:0kB global headers:0kB muxing overhead: unknown
[Parsed_libvmaf_0 @ 000001bcf1277a00] VMAF score: 94.982931
DEBUG ExitCode: 0
DEBUG Invoke-Process
File: ffmpeg
Arg: -y -nostats -hwaccel nvdec -i 200808.avi -an -c:v hevc_nvenc -preset:v p7 -profile:v main10 -rc:v constqp -rc-lookahead 1 -spatial-aq 0 -temporal-aq 1 -weighted_pred 0 -init_qpI 21 -init_qpP 21 -init_qpB 24 -qp_cb_offset 0 -qp_cr_offset 12 -b_ref_mode 1 -dpb_size 4 -multipass 1 -g 60 -bf 3 -pix_fmt yuv420p10le -color_range tv -color_primaries bt709 -color_trc bt709 -colorspace bt709 -movflags +faststart 200808.avi.mp4
ArgList:

ffmpeg version N-109952-g52a0852ae6-20230302 Copyright (c) 2000-2023 the FFmpeg developers
  built with gcc 12.2.0 (crosstool-NG 1.25.0.90_cf9beb1)
  configuration: --prefix=/ffbuild/prefix --pkg-config-flags=--static --pkg-config=pkg-config --cross-prefix=x86_64-w64-mingw32- --arch=x86_64 --target-os=mingw32 --enable-nonfree --enable-gpl --enable-version3 --disable-debug --disable-w32threads --enable-pthreads --enable-iconv --enable-libxml2 --enable-zlib --enable-libfreetype --enable-libfribidi --enable-gmp --enable-lzma --enable-fontconfig --enable-libvorbis --enable-opencl --disable-libpulse --enable-libvmaf --disable-libxcb --disable-xlib --enable-amf --enable-libaom --enable-libaribb24 --enable-avisynth --enable-chromaprint --enable-libdav1d --enable-libdavs2 --enable-libfdk-aac --enable-ffnvcodec --enable-cuda-llvm --enable-frei0r --enable-libgme --enable-libkvazaar --enable-libass --enable-libbluray --enable-libjxl --enable-libmp3lame --enable-libopus --enable-librist --enable-libssh --enable-libtheora --enable-libvpx --enable-libwebp --enable-lv2 --disable-libmfx --enable-libvpl --enable-openal --enable-libopencore-amrnb --enable-libopencore-amrwb --enable-libopenh264 --enable-libopenjpeg --enable-libopenmpt --enable-librav1e --enable-librubberband --enable-schannel --enable-sdl2 --enable-libsoxr --enable-libsrt --enable-libsvtav1 --enable-libtwolame --enable-libuavs3d --disable-libdrm --disable-vaapi --enable-libvidstab --enable-vulkan --enable-libshaderc --enable-libplacebo --enable-libx264 --enable-libx265 --enable-libxavs2 --enable-libxvid --enable-libzimg --enable-libzvbi --extra-cflags=-DLIBTWOLAME_STATIC --extra-cxxflags= --extra-ldflags=-pthread --extra-ldexeflags= --extra-libs=-lgomp --extra-version=20230302
  libavcodec     60.  5.100 / 60.  5.100
  libavformat    60.  4.100 / 60.  4.100
  libavdevice    60.  2.100 / 60.  2.100
  libavfilter     9.  4.100 /  9.  4.100
  libswscale      7.  2.100 /  7.  2.100
  libswresample   4. 11.100 /  4. 11.100
  libpostproc    57.  2.100 / 57.  2.100
  libavutil      58.  3.100 / 58.  3.100
Input #0, avi, from '200808.avi':
  Metadata:
    software        : Lavf58.49.100
  Duration: 00:02:01.05, start: 0.000000, bitrate: 745549 kb/s
  Stream #0:0: Video: rawvideo (I420 / 0x30323449), yuv420p, 1920x1080, 745750 kb/s, SAR 1:1 DAR 16:9, 29.97 fps, 29.97 tbr, 29.97 tbn
Stream mapping:
  Stream #0:0 -> #0:0 (rawvideo (native) -> hevc (hevc_nvenc))
Press [q] to stop, [?] for help
Incompatible pixel format 'yuv420p10le' for codec 'hevc_nvenc', auto-selecting format 'p010le'
Output #0, mp4, to '200808.avi.mp4':
  Metadata:
    software        : Lavf58.49.100
    encoder         : Lavf60.4.100
  Stream #0:0: Video: hevc (Main 10) (hev1 / 0x31766568), p010le(tv, bt709, progressive), 1920x1080 [SAR 1:1 DAR 16:9], q=2-31, 2000 kb/s, 29.97 fps, 30k tbn
    Metadata:
      encoder         : Lavc60.5.100 hevc_nvenc
    Side data:
      cpb: bitrate max/min/avg: 0/0/2000000 buffer size: 4000000 vbv_delay: N/A
[mp4 @ 000001efa85b4740] Starting second pass: moving the moov atom to the beginning of the file
frame= 3628 fps=101 q=23.0 Lsize=  131914kB time=00:02:00.92 bitrate=8936.7kbits/s dup=1 drop=0 speed=3.35x    
video:131882kB audio:0kB subtitle:0kB other streams:0kB global headers:0kB muxing overhead: 0.024293%
DEBUG ExitCode: 0
DEBUG Invoke-Process
File: ffmpeg
Arg: -y -nostats -i 200808.avi.mp4 -i 200808.avi -filter_complex libvmaf=model=version=vmaf_v0.6.1neg\\:name=vmaf_neg -an -f null -
ArgList:

ffmpeg version N-109952-g52a0852ae6-20230302 Copyright (c) 2000-2023 the FFmpeg developers
  built with gcc 12.2.0 (crosstool-NG 1.25.0.90_cf9beb1)
  configuration: --prefix=/ffbuild/prefix --pkg-config-flags=--static --pkg-config=pkg-config --cross-prefix=x86_64-w64-mingw32- --arch=x86_64 --target-os=mingw32 --enable-nonfree --enable-gpl --enable-version3 --disable-debug --disable-w32threads --enable-pthreads --enable-iconv --enable-libxml2 --enable-zlib --enable-libfreetype --enable-libfribidi --enable-gmp --enable-lzma --enable-fontconfig --enable-libvorbis --enable-opencl --disable-libpulse --enable-libvmaf --disable-libxcb --disable-xlib --enable-amf --enable-libaom --enable-libaribb24 --enable-avisynth --enable-chromaprint --enable-libdav1d --enable-libdavs2 --enable-libfdk-aac --enable-ffnvcodec --enable-cuda-llvm --enable-frei0r --enable-libgme --enable-libkvazaar --enable-libass --enable-libbluray --enable-libjxl --enable-libmp3lame --enable-libopus --enable-librist --enable-libssh --enable-libtheora --enable-libvpx --enable-libwebp --enable-lv2 --disable-libmfx --enable-libvpl --enable-openal --enable-libopencore-amrnb --enable-libopencore-amrwb --enable-libopenh264 --enable-libopenjpeg --enable-libopenmpt --enable-librav1e --enable-librubberband --enable-schannel --enable-sdl2 --enable-libsoxr --enable-libsrt --enable-libsvtav1 --enable-libtwolame --enable-libuavs3d --disable-libdrm --disable-vaapi --enable-libvidstab --enable-vulkan --enable-libshaderc --enable-libplacebo --enable-libx264 --enable-libx265 --enable-libxavs2 --enable-libxvid --enable-libzimg --enable-libzvbi --extra-cflags=-DLIBTWOLAME_STATIC --extra-cxxflags= --extra-ldflags=-pthread --extra-ldexeflags= --extra-libs=-lgomp --extra-version=20230302
  libavutil      58.  3.100 / 58.  3.100
  libavcodec     60.  5.100 / 60.  5.100
  libavformat    60.  4.100 / 60.  4.100
  libavdevice    60.  2.100 / 60.  2.100
  libavfilter     9.  4.100 /  9.  4.100
  libswscale      7.  2.100 /  7.  2.100
  libswresample   4. 11.100 /  4. 11.100
  libpostproc    57.  2.100 / 57.  2.100
Input #0, mov,mp4,m4a,3gp,3g2,mj2, from '200808.avi.mp4':
  Metadata:
    minor_version   : 512
    compatible_brands: isomiso2mp41
    encoder         : Lavf60.4.100
  Duration: 00:02:01.05, start: 0.000000, bitrate: 8926 kb/s
  Stream #0:0[0x1](und): Video: hevc (Main 10) (hev1 / 0x31766568), yuv420p10le(tv, bt709, progressive), 1920x1080 [SAR 1:1 DAR 16:9], 8924 kb/s, 29.97 fps, 29.97 tbr, 30k tbn (default)
    Metadata:
      handler_name    : VideoHandler
      vendor_id       : [0][0][0][0]
      encoder         : Lavc60.5.100 hevc_nvenc
    major_brand     : isom
Input #1, avi, from '200808.avi':
  Duration: 00:02:01.05, start: 0.000000, bitrate: 745549 kb/s
  Stream #1:0: Video: rawvideo (I420 / 0x30323449), yuv420p, 1920x1080, 745750 kb/s, SAR 1:1 DAR 16:9, 29.97 fps, 29.97 tbr, 29.97 tbn
  Metadata:
    software        : Lavf58.49.100
Stream mapping:
  Stream #1:0 (rawvideo) -> libvmaf
  libvmaf:default -> Stream #0:0 (wrapped_avframe)
Press [q] to stop, [?] for help
  Stream #0:0 (hevc) -> libvmaf
Output #0, null, to 'pipe:':
  Metadata:
    major_brand     : isom
    minor_version   : 512
    compatible_brands: isomiso2mp41
    encoder         : Lavf60.4.100
  Stream #0:0: Video: wrapped_avframe, yuv420p10le(tv, bt709, progressive), 1920x1080 [SAR 1:1 DAR 16:9], q=2-31, 200 kb/s, 29.97 fps, 29.97 tbn
      encoder         : Lavc60.5.100 wrapped_avframe
    Metadata:
frame= 3628 fps=6.5 q=-0.0 Lsize=N/A time=00:02:01.02 bitrate=N/A speed=0.217x    
video:1701kB audio:0kB subtitle:0kB other streams:0kB global headers:0kB muxing overhead: unknown
[Parsed_libvmaf_0 @ 000001cecbaa7a00] VMAF score: 94.981814
DEBUG ExitCode: 0
**********************
PowerShell transcript end
End time: 20230516190326
**********************
